<svg width="435" height="435" viewBox="0 0 435 435" fill="none" xmlns="http://www.w3.org/2000/svg">
<g clip-path="url(#clip0_3122_481)">
<path d="M99.3789 201.34L106.781 219.497L58 254L24 254L24 238L99.3789 201.34Z" fill="#FFAF02"/>
<path d="M122.566 253.972L97.7447 253.972L96.6462 137.038L120.446 137.038L120.446 154.894L122.566 253.972Z" fill="#FFAF02"/>
<path d="M167.571 253.422L141.37 253.422L137.377 137.042L161.621 137.042L167.571 253.422Z" fill="#FFAF02"/>
<path d="M197.821 253.999L175.89 253.999L171.458 192.457L175.891 137.038L197.82 140.043L197.821 253.999Z" fill="#FFAF02"/>
<path d="M240.832 254.186L219.5 254.186L215.234 137.039L239.595 137.039L240.832 254.186Z" fill="#FFAF02"/>
<path d="M268 253.983L248.5 253.987L254.02 137.042L274.958 137.042L268 253.983Z" fill="#FFAF02"/>
<path d="M94.4727 221.441L97.4664 202.39L155.537 189.348L159.349 208.582L94.4727 221.441Z" fill="#FFAF02"/>
<path d="M24.0004 199.431L24.0006 179.14L108.893 205.702L103.55 224.688L24.0004 199.431Z" fill="#FFAF02"/>
<path d="M159.535 209.297L157.363 189.81L223.094 182.482L225.266 201.969L159.535 209.297Z" fill="#FFAF02"/>
<path d="M224.236 196.734L234.407 179.971L322.959 233.697L313.499 253.997L224.236 196.734Z" fill="#FFAF02"/>
<path d="M312.792 150.499L309.372 137.041L364.946 137.041L412.001 233.499L411.999 254.001L380.998 234.998L363.5 174.999L312.792 150.499Z" fill="#FFAF02"/>
<path d="M313.501 253.996L319.293 236.719L400.5 223.5L411.999 253.998L313.501 253.996Z" fill="#FFAF02"/>
<path d="M262.022 158.327L275 137.001L321.843 166.502L315 193.054L262.022 158.327Z" fill="#FFAF02"/>
<path d="M332.168 159.764L350.301 163.225L334.41 240.849L314.133 238.445L332.168 159.764Z" fill="#FFAF02"/>
<path d="M308.923 181.498L314.996 193L254.412 211.66L248.278 193.037L308.923 181.498Z" fill="#FFAF02"/>
<path d="M173.633 165.457L175.947 137.042L216.345 137.042L232.513 161.353L173.633 165.457Z" fill="#FFAF02"/>
<path d="M84.4453 137.039L84 168.628L24 196.933L24 171.455L84.4453 137.039Z" fill="#FFAF02"/>
<path d="M120.478 286.854C121.937 287.165 123.11 287.894 123.995 289.043C124.88 290.167 125.323 291.459 125.323 292.919C125.323 295.024 124.581 296.699 123.098 297.943C121.638 299.163 119.593 299.773 116.961 299.773H105.225V274.58H116.566C119.126 274.58 121.124 275.166 122.559 276.338C124.019 277.511 124.749 279.102 124.749 281.111C124.749 282.595 124.354 283.827 123.564 284.808C122.799 285.789 121.77 286.471 120.478 286.854ZM111.362 284.772H115.382C116.386 284.772 117.152 284.557 117.678 284.126C118.229 283.671 118.504 283.013 118.504 282.152C118.504 281.291 118.229 280.633 117.678 280.178C117.152 279.724 116.386 279.496 115.382 279.496H111.362V284.772ZM115.884 294.821C116.913 294.821 117.702 294.594 118.253 294.139C118.827 293.66 119.114 292.979 119.114 292.093C119.114 291.208 118.815 290.514 118.217 290.012C117.643 289.509 116.841 289.258 115.812 289.258H111.362V294.821H115.884ZM150.487 274.58L141.766 291.447V299.773H135.629V291.447L126.908 274.58H133.871L138.752 285.131L143.597 274.58H150.487ZM170.004 274.58C172.66 274.58 174.98 275.106 176.966 276.159C178.952 277.211 180.483 278.695 181.56 280.609C182.661 282.499 183.211 284.688 183.211 287.177C183.211 289.641 182.661 291.83 181.56 293.744C180.483 295.658 178.94 297.142 176.93 298.194C174.944 299.247 172.636 299.773 170.004 299.773H160.565V274.58H170.004ZM169.609 294.462C171.93 294.462 173.736 293.828 175.028 292.56C176.32 291.292 176.966 289.497 176.966 287.177C176.966 284.856 176.32 283.049 175.028 281.757C173.736 280.465 171.93 279.819 169.609 279.819H166.702V294.462H169.609ZM208.245 274.58L199.524 291.447V299.773H193.388V291.447L184.667 274.58H191.629L196.51 285.131L201.355 274.58H208.245ZM233.256 299.773H227.119L216.855 284.234V299.773H210.718V274.58H216.855L227.119 290.191V274.58H233.256V299.773ZM243.842 279.496V284.593H252.06V289.33H243.842V294.857H253.137V299.773H237.705V274.58H253.137V279.496H243.842ZM272.553 299.773L267.421 292.057L262.899 299.773H255.937L264.012 286.961L255.757 274.58H262.899L267.959 282.188L272.41 274.58H279.372L271.369 287.284L279.695 299.773H272.553ZM288.805 274.58V289.653C288.805 291.16 289.176 292.321 289.918 293.134C290.659 293.948 291.748 294.354 293.183 294.354C294.619 294.354 295.72 293.948 296.485 293.134C297.251 292.321 297.634 291.16 297.634 289.653V274.58H303.771V289.617C303.771 291.866 303.292 293.768 302.335 295.323C301.378 296.878 300.086 298.051 298.459 298.84C296.856 299.63 295.062 300.025 293.076 300.025C291.09 300.025 289.307 299.642 287.728 298.876C286.173 298.087 284.941 296.914 284.032 295.359C283.123 293.78 282.668 291.866 282.668 289.617V274.58H288.805ZM317.196 300.025C315.353 300.025 313.703 299.726 312.243 299.127C310.784 298.529 309.611 297.644 308.726 296.472C307.865 295.299 307.41 293.888 307.362 292.237H313.894C313.99 293.17 314.313 293.888 314.863 294.39C315.413 294.869 316.131 295.108 317.016 295.108C317.925 295.108 318.643 294.905 319.17 294.498C319.696 294.067 319.959 293.481 319.959 292.739C319.959 292.117 319.744 291.603 319.313 291.196C318.906 290.789 318.392 290.454 317.77 290.191C317.172 289.928 316.31 289.629 315.186 289.294C313.559 288.792 312.231 288.289 311.202 287.787C310.174 287.284 309.288 286.542 308.547 285.562C307.805 284.581 307.434 283.301 307.434 281.721C307.434 279.377 308.283 277.546 309.982 276.23C311.681 274.891 313.894 274.221 316.622 274.221C319.397 274.221 321.634 274.891 323.333 276.23C325.031 277.546 325.941 279.389 326.06 281.757H319.421C319.373 280.944 319.074 280.31 318.524 279.855C317.973 279.377 317.268 279.137 316.406 279.137C315.664 279.137 315.066 279.341 314.612 279.748C314.157 280.13 313.93 280.693 313.93 281.434C313.93 282.248 314.313 282.882 315.078 283.336C315.844 283.791 317.04 284.282 318.667 284.808C320.294 285.358 321.61 285.885 322.615 286.387C323.644 286.889 324.529 287.619 325.271 288.576C326.012 289.533 326.383 290.765 326.383 292.273C326.383 293.708 326.012 295.012 325.271 296.185C324.553 297.357 323.5 298.29 322.112 298.984C320.725 299.678 319.086 300.025 317.196 300.025Z" fill="white"/>
</g>
<defs>
<clipPath id="clip0_3122_481">
<rect width="435" height="435" fill="white"/>
</clipPath>
</defs>
</svg>
