<svg width="45" height="64" viewBox="0 0 45 64" fill="none" xmlns="http://www.w3.org/2000/svg">
<path d="M10.568 63.7292H-0.000677073V-0.000763887H10.6475C10.7005 -0.000763887 10.7269 -0.000763887 10.7269 -0.000763887C10.7799 -0.000763887 10.8329 -0.000763887 10.8859 -0.000763887C13.0579 0.0522113 15.0445 0.926313 16.8457 2.62154C18.6998 4.26379 19.6269 6.35634 19.6269 8.89919V54.8293C19.6269 57.1602 18.9382 59.2263 17.5608 61.0275C16.1835 62.7757 13.8525 63.6498 10.568 63.6498V63.7292ZM11.8394 8.81972C11.8394 8.60782 11.76 8.4224 11.601 8.26347C11.4421 8.05157 11.2832 7.89264 11.1243 7.78669C11.0183 7.73372 10.9124 7.70723 10.8064 7.70723C10.7534 7.65425 10.7005 7.62776 10.6475 7.62776H7.78678V56.1802H10.4886C10.9124 56.1802 11.2302 56.0742 11.4421 55.8623C11.654 55.5974 11.7865 55.3061 11.8394 54.9882C11.8394 54.9352 11.8394 54.8823 11.8394 54.8293V8.81972ZM35.804 63.7292H24.9969V40.5258H20.8648V32.9767H24.9174V-0.000763887H35.4861C37.8171 -0.000763887 39.8566 0.767386 41.6049 2.30369C43.3531 3.83999 44.2272 6.012 44.2272 8.81972V32.341C44.2272 33.1886 44.1212 33.9833 43.9093 34.7249C43.7504 35.4136 43.459 36.0493 43.0352 36.6321C43.512 37.1618 43.8828 37.8505 44.1477 38.6981C44.4126 39.5457 44.545 40.6582 44.545 42.0356V54.7498C44.545 57.1867 43.6444 59.2793 41.8432 61.0275C40.0421 62.7757 38.029 63.6498 35.804 63.6498V63.7292ZM36.837 42.1151C36.837 41.7442 36.7576 41.4529 36.5986 41.241C36.4397 41.0291 36.2543 40.8701 36.0424 40.7642C35.9364 40.7112 35.8305 40.6582 35.7245 40.6053C35.6186 40.5523 35.5391 40.5258 35.4861 40.5258H32.7844V56.2596C33.526 56.2596 34.1882 56.2596 34.771 56.2596C35.4067 56.2596 35.7245 56.2596 35.7245 56.2596C35.9894 56.2596 36.2013 56.1537 36.3602 55.9418C36.5721 55.7299 36.7046 55.465 36.7576 55.1471C36.8105 55.0942 36.837 55.0412 36.837 54.9882C36.837 54.8823 36.837 54.8028 36.837 54.7498V42.1151ZM36.4397 8.81972C36.4397 8.44889 36.3338 8.15752 36.1218 7.94562C35.9629 7.73371 35.751 7.62776 35.4861 7.62776C35.3272 7.62776 34.9829 7.62776 34.4531 7.62776C33.9233 7.62776 33.3406 7.62776 32.7049 7.62776C32.7049 8.6343 32.7049 9.77329 32.7049 11.0447C32.7049 12.2632 32.7049 13.5611 32.7049 14.9384C32.7049 16.7926 32.7049 18.7527 32.7049 20.8188C32.7049 22.8318 32.7049 24.8979 32.7049 27.0169C32.7049 28.0235 32.7049 29.03 32.7049 30.0366C32.7049 31.0431 32.7049 32.0232 32.7049 32.9767H35.804C35.9629 32.9767 36.0954 32.9238 36.2013 32.8178C36.3073 32.7119 36.3867 32.5794 36.4397 32.4205C36.4397 32.4205 36.4397 32.394 36.4397 32.341C36.4397 32.288 36.4397 32.2616 36.4397 32.2616V8.81972Z" fill="#FFBB00"/>
</svg>
